<mxfile host="app.diagrams.net" modified="2023-12-03T13:01:38.485Z" agent="Mozilla/5.0 (Windows NT 10.0; Win64; x64) AppleWebKit/537.36 (KHTML, like Gecko) Chrome/119.0.0.0 Safari/537.36" etag="nP1kUqFrQZbdZkozcFXf" version="22.1.5" type="device">
  <diagram name="Page-1" id="Bh6OA0xNfVZtEJfHLBHy">
    <mxGraphModel dx="1246" dy="694" grid="1" gridSize="10" guides="1" tooltips="1" connect="1" arrows="1" fold="1" page="1" pageScale="1" pageWidth="3300" pageHeight="4681" math="0" shadow="0">
      <root>
        <mxCell id="0" />
        <mxCell id="1" parent="0" />
        <mxCell id="0aqBFH9IO-N5gLg-DHF9-1" value="Utilizador" style="rounded=0;whiteSpace=wrap;html=1;labelBackgroundColor=none;fillColor=#FAE5C7;strokeColor=#0F8B8D;fontColor=#143642;" parent="1" vertex="1">
          <mxGeometry x="680" y="880" width="120" height="80" as="geometry" />
        </mxCell>
        <mxCell id="0aqBFH9IO-N5gLg-DHF9-2" value="Anuncio" style="rounded=0;whiteSpace=wrap;html=1;labelBackgroundColor=none;fillColor=#FAE5C7;strokeColor=#0F8B8D;fontColor=#143642;" parent="1" vertex="1">
          <mxGeometry x="1380" y="880" width="120" height="80" as="geometry" />
        </mxCell>
        <mxCell id="0aqBFH9IO-N5gLg-DHF9-3" value="id_user" style="ellipse;whiteSpace=wrap;html=1;labelBackgroundColor=none;fillColor=#FAE5C7;strokeColor=#0F8B8D;fontColor=#143642;" parent="1" vertex="1">
          <mxGeometry x="560" y="880" width="80" height="80" as="geometry" />
        </mxCell>
        <mxCell id="0aqBFH9IO-N5gLg-DHF9-6" value="" style="endArrow=none;html=1;rounded=0;entryX=1;entryY=0.5;entryDx=0;entryDy=0;exitX=0;exitY=0.5;exitDx=0;exitDy=0;labelBackgroundColor=none;strokeColor=#A8201A;fontColor=default;" parent="1" source="0aqBFH9IO-N5gLg-DHF9-1" target="0aqBFH9IO-N5gLg-DHF9-3" edge="1">
          <mxGeometry width="50" height="50" relative="1" as="geometry">
            <mxPoint x="430" y="1140" as="sourcePoint" />
            <mxPoint x="480" y="1090" as="targetPoint" />
          </mxGeometry>
        </mxCell>
        <mxCell id="0aqBFH9IO-N5gLg-DHF9-14" value="Fazer" style="rhombus;whiteSpace=wrap;html=1;labelBackgroundColor=none;fillColor=#FAE5C7;strokeColor=#0F8B8D;fontColor=#143642;" parent="1" vertex="1">
          <mxGeometry x="1020" y="880" width="80" height="80" as="geometry" />
        </mxCell>
        <mxCell id="0aqBFH9IO-N5gLg-DHF9-30" value="" style="endArrow=none;html=1;rounded=0;entryX=0;entryY=0.5;entryDx=0;entryDy=0;exitX=1;exitY=0.5;exitDx=0;exitDy=0;labelBackgroundColor=none;strokeColor=#A8201A;fontColor=default;" parent="1" source="0aqBFH9IO-N5gLg-DHF9-1" target="0aqBFH9IO-N5gLg-DHF9-14" edge="1">
          <mxGeometry width="50" height="50" relative="1" as="geometry">
            <mxPoint x="800" y="940" as="sourcePoint" />
            <mxPoint x="920" y="940" as="targetPoint" />
          </mxGeometry>
        </mxCell>
        <mxCell id="0aqBFH9IO-N5gLg-DHF9-31" value="" style="endArrow=none;html=1;rounded=0;entryX=0;entryY=0.5;entryDx=0;entryDy=0;exitX=1;exitY=0.5;exitDx=0;exitDy=0;labelBackgroundColor=none;strokeColor=#A8201A;fontColor=default;" parent="1" source="0aqBFH9IO-N5gLg-DHF9-14" target="0aqBFH9IO-N5gLg-DHF9-2" edge="1">
          <mxGeometry width="50" height="50" relative="1" as="geometry">
            <mxPoint x="1000" y="870" as="sourcePoint" />
            <mxPoint x="1120" y="870" as="targetPoint" />
          </mxGeometry>
        </mxCell>
        <mxCell id="0aqBFH9IO-N5gLg-DHF9-32" value="1" style="text;html=1;strokeColor=none;fillColor=none;align=center;verticalAlign=middle;whiteSpace=wrap;rounded=0;labelBackgroundColor=none;fontColor=#143642;" parent="1" vertex="1">
          <mxGeometry x="820" y="920" width="60" height="30" as="geometry" />
        </mxCell>
        <mxCell id="0aqBFH9IO-N5gLg-DHF9-33" value="n" style="text;html=1;strokeColor=none;fillColor=none;align=center;verticalAlign=middle;whiteSpace=wrap;rounded=0;labelBackgroundColor=none;fontColor=#143642;" parent="1" vertex="1">
          <mxGeometry x="1250" y="920" width="60" height="30" as="geometry" />
        </mxCell>
        <mxCell id="0aqBFH9IO-N5gLg-DHF9-36" value="nome" style="ellipse;whiteSpace=wrap;html=1;labelBackgroundColor=none;fillColor=#FAE5C7;strokeColor=#0F8B8D;fontColor=#143642;" parent="1" vertex="1">
          <mxGeometry x="440" y="880" width="80" height="80" as="geometry" />
        </mxCell>
        <mxCell id="0aqBFH9IO-N5gLg-DHF9-37" value="" style="endArrow=none;html=1;rounded=0;entryX=1;entryY=0.5;entryDx=0;entryDy=0;exitX=0;exitY=0.5;exitDx=0;exitDy=0;labelBackgroundColor=none;strokeColor=#A8201A;fontColor=default;" parent="1" source="0aqBFH9IO-N5gLg-DHF9-3" target="0aqBFH9IO-N5gLg-DHF9-36" edge="1">
          <mxGeometry width="50" height="50" relative="1" as="geometry">
            <mxPoint x="520" y="920" as="sourcePoint" />
            <mxPoint x="320" y="1090" as="targetPoint" />
          </mxGeometry>
        </mxCell>
        <mxCell id="0aqBFH9IO-N5gLg-DHF9-38" value="idade" style="ellipse;whiteSpace=wrap;html=1;labelBackgroundColor=none;fillColor=#FAE5C7;strokeColor=#0F8B8D;fontColor=#143642;" parent="1" vertex="1">
          <mxGeometry x="320" y="880" width="80" height="80" as="geometry" />
        </mxCell>
        <mxCell id="0aqBFH9IO-N5gLg-DHF9-39" value="" style="endArrow=none;html=1;rounded=0;entryX=1;entryY=0.5;entryDx=0;entryDy=0;exitX=0;exitY=0.5;exitDx=0;exitDy=0;labelBackgroundColor=none;strokeColor=#A8201A;fontColor=default;" parent="1" source="0aqBFH9IO-N5gLg-DHF9-36" target="0aqBFH9IO-N5gLg-DHF9-38" edge="1">
          <mxGeometry width="50" height="50" relative="1" as="geometry">
            <mxPoint x="360" y="920" as="sourcePoint" />
            <mxPoint x="160" y="1090" as="targetPoint" />
          </mxGeometry>
        </mxCell>
        <mxCell id="0aqBFH9IO-N5gLg-DHF9-45" value="" style="endArrow=none;html=1;rounded=0;exitX=0.5;exitY=1;exitDx=0;exitDy=0;entryX=0.5;entryY=0;entryDx=0;entryDy=0;labelBackgroundColor=none;strokeColor=#A8201A;fontColor=default;" parent="1" source="0aqBFH9IO-N5gLg-DHF9-2" target="0aqBFH9IO-N5gLg-DHF9-46" edge="1">
          <mxGeometry width="50" height="50" relative="1" as="geometry">
            <mxPoint x="1434.5" y="975" as="sourcePoint" />
            <mxPoint x="1435" y="1030" as="targetPoint" />
          </mxGeometry>
        </mxCell>
        <mxCell id="0aqBFH9IO-N5gLg-DHF9-46" value="id_anuncio" style="ellipse;whiteSpace=wrap;html=1;labelBackgroundColor=none;fillColor=#FAE5C7;strokeColor=#0F8B8D;fontColor=#143642;" parent="1" vertex="1">
          <mxGeometry x="1395" y="1000" width="90" height="80" as="geometry" />
        </mxCell>
        <mxCell id="0aqBFH9IO-N5gLg-DHF9-47" value="" style="endArrow=none;html=1;rounded=0;exitX=0.5;exitY=1;exitDx=0;exitDy=0;entryX=0.5;entryY=0;entryDx=0;entryDy=0;labelBackgroundColor=none;strokeColor=#A8201A;fontColor=default;" parent="1" source="0aqBFH9IO-N5gLg-DHF9-46" target="0aqBFH9IO-N5gLg-DHF9-178" edge="1">
          <mxGeometry width="50" height="50" relative="1" as="geometry">
            <mxPoint x="1440" y="1120" as="sourcePoint" />
            <mxPoint x="1440" y="1120" as="targetPoint" />
          </mxGeometry>
        </mxCell>
        <mxCell id="0aqBFH9IO-N5gLg-DHF9-71" value="Tem" style="rhombus;whiteSpace=wrap;html=1;labelBackgroundColor=none;fillColor=#FAE5C7;strokeColor=#0F8B8D;fontColor=#143642;" parent="1" vertex="1">
          <mxGeometry x="1560" y="560" width="80" height="80" as="geometry" />
        </mxCell>
        <mxCell id="0aqBFH9IO-N5gLg-DHF9-72" value="" style="endArrow=none;html=1;rounded=0;entryX=0;entryY=0.5;entryDx=0;entryDy=0;labelBackgroundColor=none;strokeColor=#A8201A;fontColor=default;exitX=1;exitY=0.5;exitDx=0;exitDy=0;" parent="1" source="0aqBFH9IO-N5gLg-DHF9-2" target="0aqBFH9IO-N5gLg-DHF9-71" edge="1">
          <mxGeometry width="50" height="50" relative="1" as="geometry">
            <mxPoint x="1540" y="700" as="sourcePoint" />
            <mxPoint x="1130" y="679" as="targetPoint" />
          </mxGeometry>
        </mxCell>
        <mxCell id="0aqBFH9IO-N5gLg-DHF9-83" value="Keyword" style="rounded=0;whiteSpace=wrap;html=1;labelBackgroundColor=none;fillColor=#FAE5C7;strokeColor=#0F8B8D;fontColor=#143642;" parent="1" vertex="1">
          <mxGeometry x="1700" y="560" width="120" height="80" as="geometry" />
        </mxCell>
        <mxCell id="0aqBFH9IO-N5gLg-DHF9-84" value="Categoria" style="rounded=0;whiteSpace=wrap;html=1;labelBackgroundColor=none;fillColor=#FAE5C7;strokeColor=#0F8B8D;fontColor=#143642;" parent="1" vertex="1">
          <mxGeometry x="1700" y="720" width="120" height="80" as="geometry" />
        </mxCell>
        <mxCell id="0aqBFH9IO-N5gLg-DHF9-95" value="" style="endArrow=none;html=1;rounded=0;exitX=0;exitY=0.5;exitDx=0;exitDy=0;labelBackgroundColor=none;strokeColor=#A8201A;fontColor=default;entryX=1;entryY=0.5;entryDx=0;entryDy=0;" parent="1" source="0aqBFH9IO-N5gLg-DHF9-84" target="qqQ62KWjBmj_J0RQF5QH-36" edge="1">
          <mxGeometry width="50" height="50" relative="1" as="geometry">
            <mxPoint x="1520" y="900" as="sourcePoint" />
            <mxPoint x="1610" y="740" as="targetPoint" />
          </mxGeometry>
        </mxCell>
        <mxCell id="0aqBFH9IO-N5gLg-DHF9-96" value="" style="endArrow=none;html=1;rounded=0;exitX=0;exitY=0.5;exitDx=0;exitDy=0;entryX=1;entryY=0.5;entryDx=0;entryDy=0;labelBackgroundColor=none;strokeColor=#A8201A;fontColor=default;" parent="1" source="0aqBFH9IO-N5gLg-DHF9-83" target="0aqBFH9IO-N5gLg-DHF9-71" edge="1">
          <mxGeometry width="50" height="50" relative="1" as="geometry">
            <mxPoint x="1730" y="700" as="sourcePoint" />
            <mxPoint x="1640" y="570" as="targetPoint" />
          </mxGeometry>
        </mxCell>
        <mxCell id="0aqBFH9IO-N5gLg-DHF9-97" value="nome" style="ellipse;whiteSpace=wrap;html=1;labelBackgroundColor=none;fillColor=#FAE5C7;strokeColor=#0F8B8D;fontColor=#143642;" parent="1" vertex="1">
          <mxGeometry x="1980" y="720" width="80" height="80" as="geometry" />
        </mxCell>
        <mxCell id="0aqBFH9IO-N5gLg-DHF9-98" value="id_categoria" style="ellipse;whiteSpace=wrap;html=1;labelBackgroundColor=none;fillColor=#FAE5C7;strokeColor=#0F8B8D;fontColor=#143642;" parent="1" vertex="1">
          <mxGeometry x="1860" y="720" width="80" height="80" as="geometry" />
        </mxCell>
        <mxCell id="0aqBFH9IO-N5gLg-DHF9-99" value="" style="endArrow=none;html=1;rounded=0;entryX=1;entryY=0.5;entryDx=0;entryDy=0;exitX=0;exitY=0.5;exitDx=0;exitDy=0;labelBackgroundColor=none;strokeColor=#A8201A;fontColor=default;" parent="1" source="0aqBFH9IO-N5gLg-DHF9-97" target="0aqBFH9IO-N5gLg-DHF9-98" edge="1">
          <mxGeometry width="50" height="50" relative="1" as="geometry">
            <mxPoint x="1900" y="760" as="sourcePoint" />
            <mxPoint x="1700" y="930" as="targetPoint" />
          </mxGeometry>
        </mxCell>
        <mxCell id="0aqBFH9IO-N5gLg-DHF9-100" value="" style="endArrow=none;html=1;rounded=0;exitX=1;exitY=0.5;exitDx=0;exitDy=0;entryX=0;entryY=0.5;entryDx=0;entryDy=0;labelBackgroundColor=none;strokeColor=#A8201A;fontColor=default;" parent="1" source="0aqBFH9IO-N5gLg-DHF9-84" target="0aqBFH9IO-N5gLg-DHF9-98" edge="1">
          <mxGeometry width="50" height="50" relative="1" as="geometry">
            <mxPoint x="1820" y="760" as="sourcePoint" />
            <mxPoint x="1980" y="870" as="targetPoint" />
          </mxGeometry>
        </mxCell>
        <mxCell id="0aqBFH9IO-N5gLg-DHF9-101" value="keyword" style="ellipse;whiteSpace=wrap;html=1;labelBackgroundColor=none;fillColor=#FAE5C7;strokeColor=#0F8B8D;fontColor=#143642;" parent="1" vertex="1">
          <mxGeometry x="1980" y="560" width="80" height="80" as="geometry" />
        </mxCell>
        <mxCell id="0aqBFH9IO-N5gLg-DHF9-102" value="id_keyword" style="ellipse;whiteSpace=wrap;html=1;labelBackgroundColor=none;fillColor=#FAE5C7;strokeColor=#0F8B8D;fontColor=#143642;" parent="1" vertex="1">
          <mxGeometry x="1860" y="560" width="80" height="80" as="geometry" />
        </mxCell>
        <mxCell id="0aqBFH9IO-N5gLg-DHF9-103" value="" style="endArrow=none;html=1;rounded=0;entryX=1;entryY=0.5;entryDx=0;entryDy=0;exitX=0;exitY=0.5;exitDx=0;exitDy=0;labelBackgroundColor=none;strokeColor=#A8201A;fontColor=default;" parent="1" source="0aqBFH9IO-N5gLg-DHF9-101" target="0aqBFH9IO-N5gLg-DHF9-102" edge="1">
          <mxGeometry width="50" height="50" relative="1" as="geometry">
            <mxPoint x="1900" y="600" as="sourcePoint" />
            <mxPoint x="1700" y="770" as="targetPoint" />
          </mxGeometry>
        </mxCell>
        <mxCell id="0aqBFH9IO-N5gLg-DHF9-104" value="" style="endArrow=none;html=1;rounded=0;exitX=1;exitY=0.5;exitDx=0;exitDy=0;entryX=0;entryY=0.5;entryDx=0;entryDy=0;labelBackgroundColor=none;strokeColor=#A8201A;fontColor=default;" parent="1" source="0aqBFH9IO-N5gLg-DHF9-83" target="0aqBFH9IO-N5gLg-DHF9-102" edge="1">
          <mxGeometry width="50" height="50" relative="1" as="geometry">
            <mxPoint x="1820" y="600" as="sourcePoint" />
            <mxPoint x="1980" y="710" as="targetPoint" />
          </mxGeometry>
        </mxCell>
        <mxCell id="0aqBFH9IO-N5gLg-DHF9-106" value="n" style="text;html=1;strokeColor=none;fillColor=none;align=center;verticalAlign=middle;whiteSpace=wrap;rounded=0;labelBackgroundColor=none;fontColor=#143642;" parent="1" vertex="1">
          <mxGeometry x="1660" y="570" width="60" height="30" as="geometry" />
        </mxCell>
        <mxCell id="0aqBFH9IO-N5gLg-DHF9-107" value="1" style="text;html=1;strokeColor=none;fillColor=none;align=center;verticalAlign=middle;whiteSpace=wrap;rounded=0;labelBackgroundColor=none;fontColor=#143642;" parent="1" vertex="1">
          <mxGeometry x="1660" y="760" width="60" height="30" as="geometry" />
        </mxCell>
        <mxCell id="0aqBFH9IO-N5gLg-DHF9-125" value="Ter" style="rhombus;whiteSpace=wrap;html=1;labelBackgroundColor=none;fillColor=#FAE5C7;strokeColor=#0F8B8D;fontColor=#143642;" parent="1" vertex="1">
          <mxGeometry x="1400" y="360" width="80" height="80" as="geometry" />
        </mxCell>
        <mxCell id="0aqBFH9IO-N5gLg-DHF9-126" value="Comentário" style="rounded=0;whiteSpace=wrap;html=1;labelBackgroundColor=none;fillColor=#FAE5C7;strokeColor=#0F8B8D;fontColor=#143642;" parent="1" vertex="1">
          <mxGeometry x="1000" y="360" width="120" height="80" as="geometry" />
        </mxCell>
        <mxCell id="0aqBFH9IO-N5gLg-DHF9-127" value="" style="endArrow=none;html=1;rounded=0;exitX=1;exitY=0.5;exitDx=0;exitDy=0;entryX=0;entryY=0.5;entryDx=0;entryDy=0;labelBackgroundColor=none;strokeColor=#A8201A;fontColor=default;" parent="1" source="0aqBFH9IO-N5gLg-DHF9-126" target="0aqBFH9IO-N5gLg-DHF9-125" edge="1">
          <mxGeometry width="50" height="50" relative="1" as="geometry">
            <mxPoint x="990" y="260" as="sourcePoint" />
            <mxPoint x="1410" y="400" as="targetPoint" />
          </mxGeometry>
        </mxCell>
        <mxCell id="0aqBFH9IO-N5gLg-DHF9-128" value="" style="endArrow=none;html=1;rounded=0;entryX=0.5;entryY=1;entryDx=0;entryDy=0;exitX=0.5;exitY=0;exitDx=0;exitDy=0;labelBackgroundColor=none;strokeColor=#A8201A;fontColor=default;" parent="1" source="0aqBFH9IO-N5gLg-DHF9-2" target="0aqBFH9IO-N5gLg-DHF9-125" edge="1">
          <mxGeometry width="50" height="50" relative="1" as="geometry">
            <mxPoint x="1480" y="490" as="sourcePoint" />
            <mxPoint x="1570" y="450" as="targetPoint" />
          </mxGeometry>
        </mxCell>
        <mxCell id="0aqBFH9IO-N5gLg-DHF9-129" value="n" style="text;html=1;strokeColor=none;fillColor=none;align=center;verticalAlign=middle;whiteSpace=wrap;rounded=0;labelBackgroundColor=none;fontColor=#143642;" parent="1" vertex="1">
          <mxGeometry x="1100" y="400" width="60" height="30" as="geometry" />
        </mxCell>
        <mxCell id="0aqBFH9IO-N5gLg-DHF9-132" value="comentario" style="ellipse;whiteSpace=wrap;html=1;labelBackgroundColor=none;fillColor=#FAE5C7;strokeColor=#0F8B8D;fontColor=#143642;" parent="1" vertex="1">
          <mxGeometry x="1020" y="120" width="80" height="80" as="geometry" />
        </mxCell>
        <mxCell id="0aqBFH9IO-N5gLg-DHF9-133" value="id_comentario" style="ellipse;whiteSpace=wrap;html=1;labelBackgroundColor=none;fillColor=#FAE5C7;strokeColor=#0F8B8D;fontColor=#143642;" parent="1" vertex="1">
          <mxGeometry x="1020" y="240" width="80" height="80" as="geometry" />
        </mxCell>
        <mxCell id="0aqBFH9IO-N5gLg-DHF9-134" value="" style="endArrow=none;html=1;rounded=0;entryX=0.5;entryY=0;entryDx=0;entryDy=0;exitX=0.5;exitY=1;exitDx=0;exitDy=0;labelBackgroundColor=none;strokeColor=#A8201A;fontColor=default;" parent="1" source="0aqBFH9IO-N5gLg-DHF9-132" target="0aqBFH9IO-N5gLg-DHF9-133" edge="1">
          <mxGeometry width="50" height="50" relative="1" as="geometry">
            <mxPoint x="1110" y="140" as="sourcePoint" />
            <mxPoint x="910" y="310" as="targetPoint" />
          </mxGeometry>
        </mxCell>
        <mxCell id="0aqBFH9IO-N5gLg-DHF9-135" value="" style="endArrow=none;html=1;rounded=0;exitX=0.5;exitY=0;exitDx=0;exitDy=0;entryX=0.5;entryY=1;entryDx=0;entryDy=0;labelBackgroundColor=none;strokeColor=#A8201A;fontColor=default;" parent="1" source="0aqBFH9IO-N5gLg-DHF9-126" target="0aqBFH9IO-N5gLg-DHF9-133" edge="1">
          <mxGeometry width="50" height="50" relative="1" as="geometry">
            <mxPoint x="1030" y="140" as="sourcePoint" />
            <mxPoint x="1190" y="250" as="targetPoint" />
          </mxGeometry>
        </mxCell>
        <mxCell id="0aqBFH9IO-N5gLg-DHF9-136" value="Fazer" style="rhombus;whiteSpace=wrap;html=1;labelBackgroundColor=none;fillColor=#FAE5C7;strokeColor=#0F8B8D;fontColor=#143642;" parent="1" vertex="1">
          <mxGeometry x="700" y="360" width="80" height="80" as="geometry" />
        </mxCell>
        <mxCell id="0aqBFH9IO-N5gLg-DHF9-137" value="" style="endArrow=none;html=1;rounded=0;exitX=1;exitY=0.5;exitDx=0;exitDy=0;entryX=0;entryY=0.5;entryDx=0;entryDy=0;labelBackgroundColor=none;strokeColor=#A8201A;fontColor=default;" parent="1" source="0aqBFH9IO-N5gLg-DHF9-136" target="0aqBFH9IO-N5gLg-DHF9-126" edge="1">
          <mxGeometry width="50" height="50" relative="1" as="geometry">
            <mxPoint x="1330" y="610" as="sourcePoint" />
            <mxPoint x="1390" y="610" as="targetPoint" />
          </mxGeometry>
        </mxCell>
        <mxCell id="0aqBFH9IO-N5gLg-DHF9-138" value="" style="endArrow=none;html=1;rounded=0;exitX=0.5;exitY=0;exitDx=0;exitDy=0;entryX=0.5;entryY=1;entryDx=0;entryDy=0;labelBackgroundColor=none;strokeColor=#A8201A;fontColor=default;" parent="1" source="0aqBFH9IO-N5gLg-DHF9-1" target="0aqBFH9IO-N5gLg-DHF9-136" edge="1">
          <mxGeometry width="50" height="50" relative="1" as="geometry">
            <mxPoint x="1120" y="500" as="sourcePoint" />
            <mxPoint x="1200" y="500" as="targetPoint" />
          </mxGeometry>
        </mxCell>
        <mxCell id="0aqBFH9IO-N5gLg-DHF9-139" value="1" style="text;html=1;strokeColor=none;fillColor=none;align=center;verticalAlign=middle;whiteSpace=wrap;rounded=0;labelBackgroundColor=none;fontColor=#143642;" parent="1" vertex="1">
          <mxGeometry x="700" y="840" width="60" height="30" as="geometry" />
        </mxCell>
        <mxCell id="0aqBFH9IO-N5gLg-DHF9-140" value="n" style="text;html=1;strokeColor=none;fillColor=none;align=center;verticalAlign=middle;whiteSpace=wrap;rounded=0;labelBackgroundColor=none;fontColor=#143642;" parent="1" vertex="1">
          <mxGeometry x="960" y="360" width="60" height="30" as="geometry" />
        </mxCell>
        <mxCell id="0aqBFH9IO-N5gLg-DHF9-141" style="edgeStyle=orthogonalEdgeStyle;rounded=0;orthogonalLoop=1;jettySize=auto;html=1;exitX=0.5;exitY=1;exitDx=0;exitDy=0;labelBackgroundColor=none;strokeColor=#A8201A;fontColor=default;" parent="1" source="0aqBFH9IO-N5gLg-DHF9-133" target="0aqBFH9IO-N5gLg-DHF9-133" edge="1">
          <mxGeometry relative="1" as="geometry" />
        </mxCell>
        <mxCell id="0aqBFH9IO-N5gLg-DHF9-142" value="Status" style="rounded=0;whiteSpace=wrap;html=1;labelBackgroundColor=none;fillColor=#FAE5C7;strokeColor=#0F8B8D;fontColor=#143642;" parent="1" vertex="1">
          <mxGeometry x="680" y="1000" width="120" height="80" as="geometry" />
        </mxCell>
        <mxCell id="0aqBFH9IO-N5gLg-DHF9-144" value="" style="endArrow=none;html=1;rounded=0;entryX=0;entryY=0.5;entryDx=0;entryDy=0;labelBackgroundColor=none;strokeColor=#A8201A;fontColor=default;exitX=1;exitY=0.5;exitDx=0;exitDy=0;" parent="1" source="0aqBFH9IO-N5gLg-DHF9-142" target="0aqBFH9IO-N5gLg-DHF9-155" edge="1">
          <mxGeometry width="50" height="50" relative="1" as="geometry">
            <mxPoint x="780" y="1420" as="sourcePoint" />
            <mxPoint x="-210" y="1580" as="targetPoint" />
          </mxGeometry>
        </mxCell>
        <mxCell id="0aqBFH9IO-N5gLg-DHF9-150" value="id_status" style="ellipse;whiteSpace=wrap;html=1;labelBackgroundColor=none;fillColor=#FAE5C7;strokeColor=#0F8B8D;fontColor=#143642;" parent="1" vertex="1">
          <mxGeometry x="560" y="1000" width="80" height="80" as="geometry" />
        </mxCell>
        <mxCell id="0aqBFH9IO-N5gLg-DHF9-152" value="" style="endArrow=none;html=1;rounded=0;entryX=1;entryY=0.5;entryDx=0;entryDy=0;labelBackgroundColor=none;strokeColor=#A8201A;fontColor=default;exitX=0;exitY=0.5;exitDx=0;exitDy=0;" parent="1" source="0aqBFH9IO-N5gLg-DHF9-142" target="0aqBFH9IO-N5gLg-DHF9-150" edge="1">
          <mxGeometry width="50" height="50" relative="1" as="geometry">
            <mxPoint x="300" y="1030" as="sourcePoint" />
            <mxPoint x="490" y="1140" as="targetPoint" />
          </mxGeometry>
        </mxCell>
        <mxCell id="0aqBFH9IO-N5gLg-DHF9-155" value="Tem" style="rhombus;whiteSpace=wrap;html=1;labelBackgroundColor=none;fillColor=#FAE5C7;strokeColor=#0F8B8D;fontColor=#143642;" parent="1" vertex="1">
          <mxGeometry x="1020" y="1000" width="80" height="80" as="geometry" />
        </mxCell>
        <mxCell id="0aqBFH9IO-N5gLg-DHF9-156" value="" style="endArrow=none;html=1;rounded=0;exitX=1;exitY=0.5;exitDx=0;exitDy=0;entryX=0;entryY=0.5;entryDx=0;entryDy=0;labelBackgroundColor=none;strokeColor=#A8201A;fontColor=default;" parent="1" source="0aqBFH9IO-N5gLg-DHF9-155" target="0aqBFH9IO-N5gLg-DHF9-2" edge="1">
          <mxGeometry width="50" height="50" relative="1" as="geometry">
            <mxPoint x="1159" y="1060" as="sourcePoint" />
            <mxPoint x="1159" y="1130" as="targetPoint" />
          </mxGeometry>
        </mxCell>
        <mxCell id="0aqBFH9IO-N5gLg-DHF9-160" value="Avaliação" style="rounded=0;whiteSpace=wrap;html=1;labelBackgroundColor=none;fillColor=#FAE5C7;strokeColor=#0F8B8D;fontColor=#143642;" parent="1" vertex="1">
          <mxGeometry x="1000" y="520" width="120" height="80" as="geometry" />
        </mxCell>
        <mxCell id="0aqBFH9IO-N5gLg-DHF9-161" value="Fazer" style="rhombus;whiteSpace=wrap;html=1;labelBackgroundColor=none;fillColor=#FAE5C7;strokeColor=#0F8B8D;fontColor=#143642;" parent="1" vertex="1">
          <mxGeometry x="840" y="520" width="80" height="80" as="geometry" />
        </mxCell>
        <mxCell id="0aqBFH9IO-N5gLg-DHF9-162" value="" style="endArrow=none;html=1;rounded=0;entryX=0;entryY=0.5;entryDx=0;entryDy=0;labelBackgroundColor=none;strokeColor=#A8201A;fontColor=default;exitX=0.5;exitY=0;exitDx=0;exitDy=0;" parent="1" source="0aqBFH9IO-N5gLg-DHF9-1" target="0aqBFH9IO-N5gLg-DHF9-161" edge="1">
          <mxGeometry width="50" height="50" relative="1" as="geometry">
            <mxPoint x="790" y="370" as="sourcePoint" />
            <mxPoint x="810" y="10" as="targetPoint" />
          </mxGeometry>
        </mxCell>
        <mxCell id="0aqBFH9IO-N5gLg-DHF9-163" value="" style="endArrow=none;html=1;rounded=0;exitX=1;exitY=0.5;exitDx=0;exitDy=0;entryX=0;entryY=0.5;entryDx=0;entryDy=0;labelBackgroundColor=none;strokeColor=#A8201A;fontColor=default;" parent="1" source="0aqBFH9IO-N5gLg-DHF9-161" target="0aqBFH9IO-N5gLg-DHF9-160" edge="1">
          <mxGeometry width="50" height="50" relative="1" as="geometry">
            <mxPoint x="920" y="570" as="sourcePoint" />
            <mxPoint x="1010" y="570" as="targetPoint" />
          </mxGeometry>
        </mxCell>
        <mxCell id="0aqBFH9IO-N5gLg-DHF9-165" value="n" style="text;html=1;strokeColor=none;fillColor=none;align=center;verticalAlign=middle;whiteSpace=wrap;rounded=0;labelBackgroundColor=none;fontColor=#143642;" parent="1" vertex="1">
          <mxGeometry x="960" y="560" width="60" height="30" as="geometry" />
        </mxCell>
        <mxCell id="0aqBFH9IO-N5gLg-DHF9-166" value="id_avaliacao" style="ellipse;whiteSpace=wrap;html=1;labelBackgroundColor=none;fillColor=#FAE5C7;strokeColor=#0F8B8D;fontColor=#143642;" parent="1" vertex="1">
          <mxGeometry x="1170" y="520" width="80" height="80" as="geometry" />
        </mxCell>
        <mxCell id="0aqBFH9IO-N5gLg-DHF9-167" value="" style="endArrow=none;html=1;rounded=0;exitX=1;exitY=0.5;exitDx=0;exitDy=0;entryX=0;entryY=0.5;entryDx=0;entryDy=0;labelBackgroundColor=none;strokeColor=#A8201A;fontColor=default;" parent="1" source="0aqBFH9IO-N5gLg-DHF9-160" target="0aqBFH9IO-N5gLg-DHF9-166" edge="1">
          <mxGeometry width="50" height="50" relative="1" as="geometry">
            <mxPoint x="1160" y="560" as="sourcePoint" />
            <mxPoint x="1350" y="670" as="targetPoint" />
          </mxGeometry>
        </mxCell>
        <mxCell id="0aqBFH9IO-N5gLg-DHF9-168" value="avaliacao" style="ellipse;whiteSpace=wrap;html=1;labelBackgroundColor=none;fillColor=#FAE5C7;strokeColor=#0F8B8D;fontColor=#143642;" parent="1" vertex="1">
          <mxGeometry x="1290" y="520" width="80" height="80" as="geometry" />
        </mxCell>
        <mxCell id="0aqBFH9IO-N5gLg-DHF9-169" value="" style="endArrow=none;html=1;rounded=0;exitX=1;exitY=0.5;exitDx=0;exitDy=0;entryX=0;entryY=0.5;entryDx=0;entryDy=0;labelBackgroundColor=none;strokeColor=#A8201A;fontColor=default;" parent="1" source="0aqBFH9IO-N5gLg-DHF9-166" target="0aqBFH9IO-N5gLg-DHF9-168" edge="1">
          <mxGeometry width="50" height="50" relative="1" as="geometry">
            <mxPoint x="1250" y="560" as="sourcePoint" />
            <mxPoint x="1440" y="670" as="targetPoint" />
          </mxGeometry>
        </mxCell>
        <mxCell id="0aqBFH9IO-N5gLg-DHF9-173" value="data" style="ellipse;whiteSpace=wrap;html=1;labelBackgroundColor=none;fillColor=#FAE5C7;strokeColor=#0F8B8D;fontColor=#143642;" parent="1" vertex="1">
          <mxGeometry x="200" y="1000" width="80" height="80" as="geometry" />
        </mxCell>
        <mxCell id="0aqBFH9IO-N5gLg-DHF9-174" value="" style="endArrow=none;html=1;rounded=0;entryX=1;entryY=0.5;entryDx=0;entryDy=0;labelBackgroundColor=none;strokeColor=#A8201A;fontColor=default;exitX=0;exitY=0.5;exitDx=0;exitDy=0;" parent="1" source="0aqBFH9IO-N5gLg-DHF9-150" target="-uWIjM8Sss7zLSRLqRn6-7" edge="1">
          <mxGeometry width="50" height="50" relative="1" as="geometry">
            <mxPoint x="270" y="1070" as="sourcePoint" />
            <mxPoint x="600" y="1240" as="targetPoint" />
          </mxGeometry>
        </mxCell>
        <mxCell id="0aqBFH9IO-N5gLg-DHF9-175" value="hora" style="ellipse;whiteSpace=wrap;html=1;labelBackgroundColor=none;fillColor=#FAE5C7;strokeColor=#0F8B8D;fontColor=#143642;" parent="1" vertex="1">
          <mxGeometry x="320" y="1000" width="80" height="80" as="geometry" />
        </mxCell>
        <mxCell id="0aqBFH9IO-N5gLg-DHF9-176" value="" style="endArrow=none;html=1;rounded=0;exitX=1;exitY=0.5;exitDx=0;exitDy=0;entryX=0;entryY=0.5;entryDx=0;entryDy=0;labelBackgroundColor=none;strokeColor=#A8201A;fontColor=default;" parent="1" source="0aqBFH9IO-N5gLg-DHF9-173" target="0aqBFH9IO-N5gLg-DHF9-175" edge="1">
          <mxGeometry width="50" height="50" relative="1" as="geometry">
            <mxPoint x="295" y="1040" as="sourcePoint" />
            <mxPoint x="485" y="1150" as="targetPoint" />
          </mxGeometry>
        </mxCell>
        <mxCell id="0aqBFH9IO-N5gLg-DHF9-178" value="descriçao" style="ellipse;whiteSpace=wrap;html=1;labelBackgroundColor=none;fillColor=#FAE5C7;strokeColor=#0F8B8D;fontColor=#143642;" parent="1" vertex="1">
          <mxGeometry x="1395" y="1120" width="90" height="80" as="geometry" />
        </mxCell>
        <mxCell id="-uWIjM8Sss7zLSRLqRn6-7" value="descriçao" style="ellipse;whiteSpace=wrap;html=1;labelBackgroundColor=none;fillColor=#FAE5C7;strokeColor=#0F8B8D;fontColor=#143642;" parent="1" vertex="1">
          <mxGeometry x="440" y="1000" width="80" height="80" as="geometry" />
        </mxCell>
        <mxCell id="-uWIjM8Sss7zLSRLqRn6-8" value="" style="endArrow=none;html=1;rounded=0;exitX=1;exitY=0.5;exitDx=0;exitDy=0;entryX=0;entryY=0.5;entryDx=0;entryDy=0;labelBackgroundColor=none;strokeColor=#A8201A;fontColor=default;" parent="1" source="0aqBFH9IO-N5gLg-DHF9-175" target="-uWIjM8Sss7zLSRLqRn6-7" edge="1">
          <mxGeometry width="50" height="50" relative="1" as="geometry">
            <mxPoint x="405" y="1040" as="sourcePoint" />
            <mxPoint x="605" y="1150" as="targetPoint" />
          </mxGeometry>
        </mxCell>
        <mxCell id="-uWIjM8Sss7zLSRLqRn6-13" value="1" style="text;html=1;strokeColor=none;fillColor=none;align=center;verticalAlign=middle;whiteSpace=wrap;rounded=0;labelBackgroundColor=none;fontColor=#143642;" parent="1" vertex="1">
          <mxGeometry x="1400" y="800" width="60" height="30" as="geometry" />
        </mxCell>
        <mxCell id="qqQ62KWjBmj_J0RQF5QH-1" value="email" style="ellipse;whiteSpace=wrap;html=1;labelBackgroundColor=none;fillColor=#FAE5C7;strokeColor=#0F8B8D;fontColor=#143642;" parent="1" vertex="1">
          <mxGeometry x="200" y="880" width="80" height="80" as="geometry" />
        </mxCell>
        <mxCell id="qqQ62KWjBmj_J0RQF5QH-2" value="" style="endArrow=none;html=1;rounded=0;entryX=1;entryY=0.5;entryDx=0;entryDy=0;exitX=0;exitY=0.5;exitDx=0;exitDy=0;labelBackgroundColor=none;strokeColor=#A8201A;fontColor=default;" parent="1" source="0aqBFH9IO-N5gLg-DHF9-38" target="qqQ62KWjBmj_J0RQF5QH-1" edge="1">
          <mxGeometry width="50" height="50" relative="1" as="geometry">
            <mxPoint x="310" y="920" as="sourcePoint" />
            <mxPoint x="30" y="1090" as="targetPoint" />
          </mxGeometry>
        </mxCell>
        <mxCell id="qqQ62KWjBmj_J0RQF5QH-4" value="Região" style="rounded=0;whiteSpace=wrap;html=1;labelBackgroundColor=none;fillColor=#FAE5C7;strokeColor=#0F8B8D;fontColor=#143642;" parent="1" vertex="1">
          <mxGeometry x="1700" y="1120" width="120" height="80" as="geometry" />
        </mxCell>
        <mxCell id="qqQ62KWjBmj_J0RQF5QH-5" value="País" style="rounded=0;whiteSpace=wrap;html=1;labelBackgroundColor=none;fillColor=#FAE5C7;strokeColor=#0F8B8D;fontColor=#143642;" parent="1" vertex="1">
          <mxGeometry x="1700" y="1360" width="120" height="80" as="geometry" />
        </mxCell>
        <mxCell id="qqQ62KWjBmj_J0RQF5QH-6" value="Localidade" style="rounded=0;whiteSpace=wrap;html=1;labelBackgroundColor=none;fillColor=#FAE5C7;strokeColor=#0F8B8D;fontColor=#143642;" parent="1" vertex="1">
          <mxGeometry x="1700" y="880" width="120" height="80" as="geometry" />
        </mxCell>
        <mxCell id="qqQ62KWjBmj_J0RQF5QH-7" value="Anunciar /&lt;br&gt;Ter" style="rhombus;whiteSpace=wrap;html=1;labelBackgroundColor=none;fillColor=#FAE5C7;strokeColor=#0F8B8D;fontColor=#143642;" parent="1" vertex="1">
          <mxGeometry x="1560" y="880" width="80" height="80" as="geometry" />
        </mxCell>
        <mxCell id="qqQ62KWjBmj_J0RQF5QH-8" value="" style="endArrow=none;html=1;rounded=0;entryX=0;entryY=0.5;entryDx=0;entryDy=0;exitX=1;exitY=0.5;exitDx=0;exitDy=0;labelBackgroundColor=none;strokeColor=#A8201A;fontColor=default;" parent="1" source="qqQ62KWjBmj_J0RQF5QH-7" target="qqQ62KWjBmj_J0RQF5QH-6" edge="1">
          <mxGeometry width="50" height="50" relative="1" as="geometry">
            <mxPoint x="1740" y="930" as="sourcePoint" />
            <mxPoint x="1820" y="930" as="targetPoint" />
          </mxGeometry>
        </mxCell>
        <mxCell id="qqQ62KWjBmj_J0RQF5QH-9" value="Situar-se/&lt;br&gt;Ter" style="rhombus;whiteSpace=wrap;html=1;labelBackgroundColor=none;fillColor=#FAE5C7;strokeColor=#0F8B8D;fontColor=#143642;" parent="1" vertex="1">
          <mxGeometry x="1720" y="1000" width="80" height="80" as="geometry" />
        </mxCell>
        <mxCell id="qqQ62KWjBmj_J0RQF5QH-10" value="" style="endArrow=none;html=1;rounded=0;entryX=0.5;entryY=0;entryDx=0;entryDy=0;exitX=0.5;exitY=1;exitDx=0;exitDy=0;labelBackgroundColor=none;strokeColor=#A8201A;fontColor=default;" parent="1" source="qqQ62KWjBmj_J0RQF5QH-6" target="qqQ62KWjBmj_J0RQF5QH-9" edge="1">
          <mxGeometry width="50" height="50" relative="1" as="geometry">
            <mxPoint x="1550" y="1080" as="sourcePoint" />
            <mxPoint x="1650" y="1160" as="targetPoint" />
          </mxGeometry>
        </mxCell>
        <mxCell id="qqQ62KWjBmj_J0RQF5QH-11" value="" style="endArrow=none;html=1;rounded=0;entryX=0.5;entryY=0;entryDx=0;entryDy=0;exitX=0.5;exitY=1;exitDx=0;exitDy=0;labelBackgroundColor=none;strokeColor=#A8201A;fontColor=default;" parent="1" source="qqQ62KWjBmj_J0RQF5QH-9" target="qqQ62KWjBmj_J0RQF5QH-4" edge="1">
          <mxGeometry width="50" height="50" relative="1" as="geometry">
            <mxPoint x="1540" y="1280" as="sourcePoint" />
            <mxPoint x="1640" y="1300" as="targetPoint" />
          </mxGeometry>
        </mxCell>
        <mxCell id="qqQ62KWjBmj_J0RQF5QH-12" value="n" style="text;html=1;strokeColor=none;fillColor=none;align=center;verticalAlign=middle;whiteSpace=wrap;rounded=0;labelBackgroundColor=none;fontColor=#143642;" parent="1" vertex="1">
          <mxGeometry x="1660" y="920" width="60" height="30" as="geometry" />
        </mxCell>
        <mxCell id="qqQ62KWjBmj_J0RQF5QH-13" value="n" style="text;html=1;strokeColor=none;fillColor=none;align=center;verticalAlign=middle;whiteSpace=wrap;rounded=0;labelBackgroundColor=none;fontColor=#143642;" parent="1" vertex="1">
          <mxGeometry x="1740" y="960" width="60" height="30" as="geometry" />
        </mxCell>
        <mxCell id="qqQ62KWjBmj_J0RQF5QH-14" value="1" style="text;html=1;strokeColor=none;fillColor=none;align=center;verticalAlign=middle;whiteSpace=wrap;rounded=0;labelBackgroundColor=none;fontColor=#143642;" parent="1" vertex="1">
          <mxGeometry x="1740" y="1090" width="60" height="30" as="geometry" />
        </mxCell>
        <mxCell id="qqQ62KWjBmj_J0RQF5QH-15" value="" style="endArrow=none;html=1;rounded=0;exitX=1;exitY=0.5;exitDx=0;exitDy=0;entryX=0;entryY=0.5;entryDx=0;entryDy=0;labelBackgroundColor=none;strokeColor=#A8201A;fontColor=default;" parent="1" source="qqQ62KWjBmj_J0RQF5QH-6" target="qqQ62KWjBmj_J0RQF5QH-16" edge="1">
          <mxGeometry width="50" height="50" relative="1" as="geometry">
            <mxPoint x="1870" y="940" as="sourcePoint" />
            <mxPoint x="1870" y="920" as="targetPoint" />
          </mxGeometry>
        </mxCell>
        <mxCell id="qqQ62KWjBmj_J0RQF5QH-16" value="id_localidade" style="ellipse;whiteSpace=wrap;html=1;labelBackgroundColor=none;fillColor=#FAE5C7;strokeColor=#0F8B8D;fontColor=#143642;" parent="1" vertex="1">
          <mxGeometry x="1860" y="880" width="80" height="80" as="geometry" />
        </mxCell>
        <mxCell id="qqQ62KWjBmj_J0RQF5QH-17" value="" style="endArrow=none;html=1;rounded=0;exitX=1;exitY=0.5;exitDx=0;exitDy=0;entryX=0;entryY=0.5;entryDx=0;entryDy=0;labelBackgroundColor=none;strokeColor=#A8201A;fontColor=default;" parent="1" source="qqQ62KWjBmj_J0RQF5QH-16" target="qqQ62KWjBmj_J0RQF5QH-18" edge="1">
          <mxGeometry width="50" height="50" relative="1" as="geometry">
            <mxPoint x="1940" y="920" as="sourcePoint" />
            <mxPoint x="1990" y="920" as="targetPoint" />
          </mxGeometry>
        </mxCell>
        <mxCell id="qqQ62KWjBmj_J0RQF5QH-18" value="nome" style="ellipse;whiteSpace=wrap;html=1;labelBackgroundColor=none;fillColor=#FAE5C7;strokeColor=#0F8B8D;fontColor=#143642;" parent="1" vertex="1">
          <mxGeometry x="1980" y="880" width="80" height="80" as="geometry" />
        </mxCell>
        <mxCell id="qqQ62KWjBmj_J0RQF5QH-19" value="" style="endArrow=none;html=1;rounded=0;exitX=1;exitY=0.5;exitDx=0;exitDy=0;entryX=0;entryY=0.5;entryDx=0;entryDy=0;labelBackgroundColor=none;strokeColor=#A8201A;fontColor=default;" parent="1" source="qqQ62KWjBmj_J0RQF5QH-4" target="qqQ62KWjBmj_J0RQF5QH-20" edge="1">
          <mxGeometry width="50" height="50" relative="1" as="geometry">
            <mxPoint x="1820" y="1160" as="sourcePoint" />
            <mxPoint x="1870" y="1160" as="targetPoint" />
          </mxGeometry>
        </mxCell>
        <mxCell id="qqQ62KWjBmj_J0RQF5QH-20" value="id_regiao" style="ellipse;whiteSpace=wrap;html=1;labelBackgroundColor=none;fillColor=#FAE5C7;strokeColor=#0F8B8D;fontColor=#143642;" parent="1" vertex="1">
          <mxGeometry x="1860" y="1120" width="80" height="80" as="geometry" />
        </mxCell>
        <mxCell id="qqQ62KWjBmj_J0RQF5QH-21" value="" style="endArrow=none;html=1;rounded=0;exitX=1;exitY=0.5;exitDx=0;exitDy=0;entryX=0;entryY=0.5;entryDx=0;entryDy=0;labelBackgroundColor=none;strokeColor=#A8201A;fontColor=default;" parent="1" source="qqQ62KWjBmj_J0RQF5QH-20" target="qqQ62KWjBmj_J0RQF5QH-22" edge="1">
          <mxGeometry width="50" height="50" relative="1" as="geometry">
            <mxPoint x="1940" y="1160" as="sourcePoint" />
            <mxPoint x="1990" y="1160" as="targetPoint" />
          </mxGeometry>
        </mxCell>
        <mxCell id="qqQ62KWjBmj_J0RQF5QH-22" value="nome" style="ellipse;whiteSpace=wrap;html=1;labelBackgroundColor=none;fillColor=#FAE5C7;strokeColor=#0F8B8D;fontColor=#143642;" parent="1" vertex="1">
          <mxGeometry x="1980" y="1120" width="80" height="80" as="geometry" />
        </mxCell>
        <mxCell id="qqQ62KWjBmj_J0RQF5QH-23" value="" style="endArrow=none;html=1;rounded=0;exitX=1;exitY=0.5;exitDx=0;exitDy=0;entryX=0;entryY=0.5;entryDx=0;entryDy=0;labelBackgroundColor=none;strokeColor=#A8201A;fontColor=default;" parent="1" target="qqQ62KWjBmj_J0RQF5QH-24" edge="1">
          <mxGeometry width="50" height="50" relative="1" as="geometry">
            <mxPoint x="1820" y="1400" as="sourcePoint" />
            <mxPoint x="1870" y="1400" as="targetPoint" />
          </mxGeometry>
        </mxCell>
        <mxCell id="qqQ62KWjBmj_J0RQF5QH-24" value="id_pais" style="ellipse;whiteSpace=wrap;html=1;labelBackgroundColor=none;fillColor=#FAE5C7;strokeColor=#0F8B8D;fontColor=#143642;" parent="1" vertex="1">
          <mxGeometry x="1860" y="1360" width="80" height="80" as="geometry" />
        </mxCell>
        <mxCell id="qqQ62KWjBmj_J0RQF5QH-25" value="" style="endArrow=none;html=1;rounded=0;exitX=1;exitY=0.5;exitDx=0;exitDy=0;entryX=0;entryY=0.5;entryDx=0;entryDy=0;labelBackgroundColor=none;strokeColor=#A8201A;fontColor=default;" parent="1" source="qqQ62KWjBmj_J0RQF5QH-24" target="qqQ62KWjBmj_J0RQF5QH-26" edge="1">
          <mxGeometry width="50" height="50" relative="1" as="geometry">
            <mxPoint x="1940" y="1400" as="sourcePoint" />
            <mxPoint x="1990" y="1400" as="targetPoint" />
          </mxGeometry>
        </mxCell>
        <mxCell id="qqQ62KWjBmj_J0RQF5QH-26" value="nome" style="ellipse;whiteSpace=wrap;html=1;labelBackgroundColor=none;fillColor=#FAE5C7;strokeColor=#0F8B8D;fontColor=#143642;" parent="1" vertex="1">
          <mxGeometry x="1980" y="1360" width="80" height="80" as="geometry" />
        </mxCell>
        <mxCell id="qqQ62KWjBmj_J0RQF5QH-27" value="Situar-se/&lt;br&gt;Ter" style="rhombus;whiteSpace=wrap;html=1;labelBackgroundColor=none;fillColor=#FAE5C7;strokeColor=#0F8B8D;fontColor=#143642;" parent="1" vertex="1">
          <mxGeometry x="1720" y="1240" width="80" height="80" as="geometry" />
        </mxCell>
        <mxCell id="qqQ62KWjBmj_J0RQF5QH-28" value="" style="endArrow=none;html=1;rounded=0;entryX=0.5;entryY=0;entryDx=0;entryDy=0;exitX=0.5;exitY=1;exitDx=0;exitDy=0;labelBackgroundColor=none;strokeColor=#A8201A;fontColor=default;" parent="1" source="qqQ62KWjBmj_J0RQF5QH-4" target="qqQ62KWjBmj_J0RQF5QH-27" edge="1">
          <mxGeometry width="50" height="50" relative="1" as="geometry">
            <mxPoint x="1610" y="1270" as="sourcePoint" />
            <mxPoint x="1500" y="1470" as="targetPoint" />
          </mxGeometry>
        </mxCell>
        <mxCell id="qqQ62KWjBmj_J0RQF5QH-29" value="" style="endArrow=none;html=1;rounded=0;entryX=0.5;entryY=0;entryDx=0;entryDy=0;exitX=0.5;exitY=1;exitDx=0;exitDy=0;labelBackgroundColor=none;strokeColor=#A8201A;fontColor=default;" parent="1" source="qqQ62KWjBmj_J0RQF5QH-27" target="qqQ62KWjBmj_J0RQF5QH-5" edge="1">
          <mxGeometry width="50" height="50" relative="1" as="geometry">
            <mxPoint x="1390" y="1590" as="sourcePoint" />
            <mxPoint x="1610" y="1510" as="targetPoint" />
          </mxGeometry>
        </mxCell>
        <mxCell id="qqQ62KWjBmj_J0RQF5QH-30" value="n" style="text;html=1;strokeColor=none;fillColor=none;align=center;verticalAlign=middle;whiteSpace=wrap;rounded=0;labelBackgroundColor=none;fontColor=#143642;" parent="1" vertex="1">
          <mxGeometry x="1710" y="1200" width="60" height="30" as="geometry" />
        </mxCell>
        <mxCell id="qqQ62KWjBmj_J0RQF5QH-31" value="1" style="text;html=1;strokeColor=none;fillColor=none;align=center;verticalAlign=middle;whiteSpace=wrap;rounded=0;labelBackgroundColor=none;fontColor=#143642;" parent="1" vertex="1">
          <mxGeometry x="1710" y="1330" width="60" height="30" as="geometry" />
        </mxCell>
        <mxCell id="qqQ62KWjBmj_J0RQF5QH-34" value="" style="endArrow=none;html=1;rounded=0;entryX=0;entryY=0.5;entryDx=0;entryDy=0;exitX=1;exitY=0.5;exitDx=0;exitDy=0;labelBackgroundColor=none;strokeColor=#A8201A;fontColor=default;" parent="1" source="0aqBFH9IO-N5gLg-DHF9-2" target="qqQ62KWjBmj_J0RQF5QH-7" edge="1">
          <mxGeometry width="50" height="50" relative="1" as="geometry">
            <mxPoint x="1650" y="930" as="sourcePoint" />
            <mxPoint x="1730" y="930" as="targetPoint" />
          </mxGeometry>
        </mxCell>
        <mxCell id="qqQ62KWjBmj_J0RQF5QH-35" value="n" style="text;html=1;strokeColor=none;fillColor=none;align=center;verticalAlign=middle;whiteSpace=wrap;rounded=0;labelBackgroundColor=none;fontColor=#143642;" parent="1" vertex="1">
          <mxGeometry x="1485" y="920" width="60" height="30" as="geometry" />
        </mxCell>
        <mxCell id="qqQ62KWjBmj_J0RQF5QH-36" value="Tem" style="rhombus;whiteSpace=wrap;html=1;labelBackgroundColor=none;fillColor=#FAE5C7;strokeColor=#0F8B8D;fontColor=#143642;" parent="1" vertex="1">
          <mxGeometry x="1560" y="720" width="80" height="80" as="geometry" />
        </mxCell>
        <mxCell id="qqQ62KWjBmj_J0RQF5QH-37" value="" style="endArrow=none;html=1;rounded=0;entryX=0;entryY=0.5;entryDx=0;entryDy=0;labelBackgroundColor=none;strokeColor=#A8201A;fontColor=default;exitX=0.25;exitY=0;exitDx=0;exitDy=0;" parent="1" source="qqQ62KWjBmj_J0RQF5QH-35" target="qqQ62KWjBmj_J0RQF5QH-36" edge="1">
          <mxGeometry width="50" height="50" relative="1" as="geometry">
            <mxPoint x="1510" y="860" as="sourcePoint" />
            <mxPoint x="1100" y="839" as="targetPoint" />
          </mxGeometry>
        </mxCell>
        <mxCell id="qqQ62KWjBmj_J0RQF5QH-38" value="n" style="text;html=1;strokeColor=none;fillColor=none;align=center;verticalAlign=middle;whiteSpace=wrap;rounded=0;labelBackgroundColor=none;fontColor=#143642;" parent="1" vertex="1">
          <mxGeometry x="1490" y="880" width="60" height="30" as="geometry" />
        </mxCell>
        <mxCell id="qqQ62KWjBmj_J0RQF5QH-39" value="n" style="text;html=1;strokeColor=none;fillColor=none;align=center;verticalAlign=middle;whiteSpace=wrap;rounded=0;labelBackgroundColor=none;fontColor=#143642;" parent="1" vertex="1">
          <mxGeometry x="1470" y="850" width="60" height="30" as="geometry" />
        </mxCell>
        <mxCell id="qqQ62KWjBmj_J0RQF5QH-41" value="n" style="text;html=1;strokeColor=none;fillColor=none;align=center;verticalAlign=middle;whiteSpace=wrap;rounded=0;labelBackgroundColor=none;fontColor=#143642;" parent="1" vertex="1">
          <mxGeometry x="740" y="850" width="60" height="30" as="geometry" />
        </mxCell>
        <mxCell id="qqQ62KWjBmj_J0RQF5QH-42" value="Ter" style="rhombus;whiteSpace=wrap;html=1;labelBackgroundColor=none;fillColor=#FAE5C7;strokeColor=#0F8B8D;fontColor=#143642;" parent="1" vertex="1">
          <mxGeometry x="1020" y="640" width="80" height="80" as="geometry" />
        </mxCell>
        <mxCell id="qqQ62KWjBmj_J0RQF5QH-43" value="" style="endArrow=none;html=1;rounded=0;exitX=0.5;exitY=0;exitDx=0;exitDy=0;entryX=0.5;entryY=1;entryDx=0;entryDy=0;labelBackgroundColor=none;strokeColor=#A8201A;fontColor=default;" parent="1" source="qqQ62KWjBmj_J0RQF5QH-42" target="0aqBFH9IO-N5gLg-DHF9-160" edge="1">
          <mxGeometry width="50" height="50" relative="1" as="geometry">
            <mxPoint x="980" y="710" as="sourcePoint" />
            <mxPoint x="1030" y="710" as="targetPoint" />
          </mxGeometry>
        </mxCell>
        <mxCell id="qqQ62KWjBmj_J0RQF5QH-45" value="1" style="text;html=1;strokeColor=none;fillColor=none;align=center;verticalAlign=middle;whiteSpace=wrap;rounded=0;labelBackgroundColor=none;fontColor=#143642;" parent="1" vertex="1">
          <mxGeometry x="1040" y="600" width="60" height="30" as="geometry" />
        </mxCell>
        <mxCell id="qqQ62KWjBmj_J0RQF5QH-46" value="1" style="text;html=1;strokeColor=none;fillColor=none;align=center;verticalAlign=middle;whiteSpace=wrap;rounded=0;labelBackgroundColor=none;fontColor=#143642;" parent="1" vertex="1">
          <mxGeometry x="790" y="870" width="60" height="30" as="geometry" />
        </mxCell>
        <mxCell id="qqQ62KWjBmj_J0RQF5QH-49" value="1" style="text;html=1;strokeColor=none;fillColor=none;align=center;verticalAlign=middle;whiteSpace=wrap;rounded=0;labelBackgroundColor=none;fontColor=#143642;" parent="1" vertex="1">
          <mxGeometry x="780" y="1060" width="60" height="30" as="geometry" />
        </mxCell>
        <mxCell id="qqQ62KWjBmj_J0RQF5QH-50" value="n" style="text;html=1;strokeColor=none;fillColor=none;align=center;verticalAlign=middle;whiteSpace=wrap;rounded=0;labelBackgroundColor=none;fontColor=#143642;" parent="1" vertex="1">
          <mxGeometry x="1340" y="940" width="60" height="30" as="geometry" />
        </mxCell>
        <mxCell id="Et5qHcTadWFs08vnLvLA-1" value="Avaliar" style="rhombus;whiteSpace=wrap;html=1;labelBackgroundColor=none;fillColor=#FAE5C7;strokeColor=#0F8B8D;fontColor=#143642;" vertex="1" parent="1">
          <mxGeometry x="1020" y="760" width="80" height="80" as="geometry" />
        </mxCell>
        <mxCell id="Et5qHcTadWFs08vnLvLA-2" value="" style="endArrow=none;html=1;rounded=0;entryX=0;entryY=0.5;entryDx=0;entryDy=0;labelBackgroundColor=none;strokeColor=#A8201A;fontColor=default;exitX=1;exitY=0.5;exitDx=0;exitDy=0;" edge="1" parent="1" source="0aqBFH9IO-N5gLg-DHF9-1" target="Et5qHcTadWFs08vnLvLA-1">
          <mxGeometry width="50" height="50" relative="1" as="geometry">
            <mxPoint x="750" y="890" as="sourcePoint" />
            <mxPoint x="850" y="370" as="targetPoint" />
          </mxGeometry>
        </mxCell>
        <mxCell id="Et5qHcTadWFs08vnLvLA-3" value="" style="endArrow=none;html=1;rounded=0;entryX=0;entryY=0.5;entryDx=0;entryDy=0;labelBackgroundColor=none;strokeColor=#A8201A;fontColor=default;exitX=1;exitY=0.5;exitDx=0;exitDy=0;" edge="1" parent="1" source="Et5qHcTadWFs08vnLvLA-1" target="0aqBFH9IO-N5gLg-DHF9-2">
          <mxGeometry width="50" height="50" relative="1" as="geometry">
            <mxPoint x="1120" y="730" as="sourcePoint" />
            <mxPoint x="1340" y="580" as="targetPoint" />
          </mxGeometry>
        </mxCell>
        <mxCell id="Et5qHcTadWFs08vnLvLA-4" value="n" style="text;html=1;strokeColor=none;fillColor=none;align=center;verticalAlign=middle;whiteSpace=wrap;rounded=0;labelBackgroundColor=none;fontColor=#143642;" vertex="1" parent="1">
          <mxGeometry x="1320" y="870" width="60" height="30" as="geometry" />
        </mxCell>
        <mxCell id="Et5qHcTadWFs08vnLvLA-5" value="" style="endArrow=none;html=1;rounded=0;labelBackgroundColor=none;strokeColor=#A8201A;fontColor=default;exitX=0.5;exitY=0;exitDx=0;exitDy=0;entryX=0.5;entryY=1;entryDx=0;entryDy=0;" edge="1" parent="1" source="0aqBFH9IO-N5gLg-DHF9-2" target="qqQ62KWjBmj_J0RQF5QH-42">
          <mxGeometry width="50" height="50" relative="1" as="geometry">
            <mxPoint x="840" y="900" as="sourcePoint" />
            <mxPoint x="950" y="520" as="targetPoint" />
          </mxGeometry>
        </mxCell>
        <mxCell id="Et5qHcTadWFs08vnLvLA-8" value="n" style="text;html=1;strokeColor=none;fillColor=none;align=center;verticalAlign=middle;whiteSpace=wrap;rounded=0;labelBackgroundColor=none;fontColor=#143642;" vertex="1" parent="1">
          <mxGeometry x="1380" y="840" width="60" height="30" as="geometry" />
        </mxCell>
        <mxCell id="Et5qHcTadWFs08vnLvLA-10" value="Situar-se" style="rhombus;whiteSpace=wrap;html=1;labelBackgroundColor=none;fillColor=#FAE5C7;strokeColor=#0F8B8D;fontColor=#143642;" vertex="1" parent="1">
          <mxGeometry x="1560" y="1040" width="80" height="80" as="geometry" />
        </mxCell>
        <mxCell id="Et5qHcTadWFs08vnLvLA-11" value="" style="endArrow=none;html=1;rounded=0;exitX=1;exitY=1;exitDx=0;exitDy=0;entryX=0;entryY=0.5;entryDx=0;entryDy=0;labelBackgroundColor=none;strokeColor=#A8201A;fontColor=default;" edge="1" parent="1" source="0aqBFH9IO-N5gLg-DHF9-2" target="Et5qHcTadWFs08vnLvLA-10">
          <mxGeometry width="50" height="50" relative="1" as="geometry">
            <mxPoint x="1250" y="1360" as="sourcePoint" />
            <mxPoint x="1530" y="1240" as="targetPoint" />
          </mxGeometry>
        </mxCell>
        <mxCell id="Et5qHcTadWFs08vnLvLA-12" value="" style="endArrow=none;html=1;rounded=0;exitX=0;exitY=1;exitDx=0;exitDy=0;entryX=1;entryY=0.5;entryDx=0;entryDy=0;labelBackgroundColor=none;strokeColor=#A8201A;fontColor=default;" edge="1" parent="1" source="qqQ62KWjBmj_J0RQF5QH-6" target="Et5qHcTadWFs08vnLvLA-10">
          <mxGeometry width="50" height="50" relative="1" as="geometry">
            <mxPoint x="1510" y="970" as="sourcePoint" />
            <mxPoint x="1570" y="1090" as="targetPoint" />
          </mxGeometry>
        </mxCell>
        <mxCell id="Et5qHcTadWFs08vnLvLA-13" value="1" style="text;html=1;strokeColor=none;fillColor=none;align=center;verticalAlign=middle;whiteSpace=wrap;rounded=0;labelBackgroundColor=none;fontColor=#143642;" vertex="1" parent="1">
          <mxGeometry x="1650" y="970" width="60" height="30" as="geometry" />
        </mxCell>
        <mxCell id="Et5qHcTadWFs08vnLvLA-14" value="n" style="text;html=1;strokeColor=none;fillColor=none;align=center;verticalAlign=middle;whiteSpace=wrap;rounded=0;labelBackgroundColor=none;fontColor=#143642;" vertex="1" parent="1">
          <mxGeometry x="1490" y="970" width="60" height="30" as="geometry" />
        </mxCell>
      </root>
    </mxGraphModel>
  </diagram>
</mxfile>
